<svg width="120" height="120" xmlns="http://www.w3.org/2000/svg" xmlns:xlink="http://www.w3.org/1999/xlink"><defs><linearGradient x1="50%" y1=".284%" x2="50%" y2="98.827%" id="c"><stop stop-color="#01B6FA" offset="0%"/><stop stop-color="#72E5FA" offset="99.916%"/></linearGradient><filter x="-32.6%" y="-22.9%" width="147.6%" height="145.8%" filterUnits="objectBoundingBox" id="a"><feMorphology radius="5" in="SourceAlpha" result="shadowSpreadOuter1"/><feOffset dy="24" in="shadowSpreadOuter1" result="shadowOffsetOuter1"/><feGaussianBlur stdDeviation="10" in="shadowOffsetOuter1" result="shadowBlurOuter1"/><feColorMatrix values="0 0 0 0 0.501960784 0 0 0 0 0.321568627 0 0 0 0 1 0 0 0 0.4 0" in="shadowBlurOuter1"/></filter><path d="M98.659 30.876c-.436-2.278 1.283-3.336 3.718-2.688 1.456.428 3.286 1.838 5.587 4.31 2.807 3.04 5.83 7.082 8.998 12.262l1.276 2.146c5.43 9.18 7.231 13 6.483 14.646-.66 1.256-2.296 1.712-6.912 2.388l-.861.132c-1.447.208-5.702.799-7.41 1.067a137.69 137.69 0 00-11.52 2.298l-1.159.262c-5.225 1.154-7.924 1.372-9.528.002-1.581-1.32-.94-3.01.675-4.232 1.023-.773 2.58-1.514 4.303-2.08 3.89-1.255 7.68-2.139 11.683-2.827l2.194-.35-.26-.118-.42-.195c-5.855-2.79-11.982-5.148-17.706-6.803-8.79-2.462-17.495-3.41-25.58-2.73-8.052.636-15.707 2.875-22.073 6.384-5.884 3.234-10.708 7.633-14.12 12.613a41.141 41.141 0 00-5.903 12.8c-1.261 5.174-1.385 9.377-.822 13.437l.128.82c.151.921.307 1.72.465 2.417l.106.447.051.206.188.716c.395 1.87-.048 3.833-1.938 4.067-.994.105-1.867-.445-2.768-1.496a13.116 13.116 0 01-1.277-1.82 32.878 32.878 0 01-1.201-2.67c-1.85-4.826-2.076-11.463-.54-17.897 1.751-7.574 5.737-14.96 11.25-20.918 5.072-5.519 11.678-9.766 19.263-12.786 8.198-3.201 16.822-4.576 25.712-4.436 7.056.099 13.742 1.219 21.17 3.263 1.722.508 3.399 1.044 5.042 1.61l1.013.352c3.794 1.335 6.651 2.53 11.389 4.644l3.776 1.736-.629-1.136c-.237-.415-.528-.911-.933-1.593l-3.095-5.18 1.316-.78-1.326.763-.235-.394c-.21-.345-.488-.782-.842-1.325l-.777-1.182-2.71-4.08c-.378-.571-.714-1.086-1.03-1.576l-.393-.63c-1.054-1.718-1.63-2.889-1.818-3.866z" id="b"/></defs><g transform="rotate(34 67.191 61.872)" fill="none" fill-rule="evenodd"><use fill="#000" filter="url(#a)" xlink:href="#b"/><use fill="url(#c)" xlink:href="#b"/></g></svg>