<svg width="156px" height="156px" viewBox="0 0 156 156" id="icon-shadow-secondary" version="1.1" xmlns="http://www.w3.org/2000/svg" xmlns:xlink="http://www.w3.org/1999/xlink" class="icon__inner">
    <!-- Generator: Sketch 61.1 (89650) - https://sketch.com -->
    <title>benefit-flexible-payments</title>
    <desc>Created with Sketch.</desc>
    <defs>
        <linearGradient x1="50%" y1="0.284385536%" x2="50%" y2="99.4113593%" id="linearGradient-benefit-flexible-payments">
            <stop class="main-stop" offset="0%"></stop>
            <stop class="alt-stop" offset="100%"></stop>
        </linearGradient>
    </defs>
    <g id="Page-1" stroke="none" stroke-width="1" fill="#3DD0FA" fill-rule="evenodd">
        <g id="Artboard-Copy-5" transform="translate(-1765.000000, -5131.000000)">
            <g id="Benefits" transform="translate(1765.000000, 5131.000000)">
                <g id="EXCELLENCE">
                    <g id="items">
                        <g id="benefit-flexible-payments" transform="translate(32.000000, 32.000000)">
                            <g id="Group-6">
                                <path d="M46,92 C91.6454167,92 92,71.4054167 92,46 C92,20.5945833 91.6454167,0 46,0 C0.354583333,0 0,20.5945833 0,46 C0,71.4054167 0.354583333,92 46,92 Z" id="Shape"></path>
                                <g id="money-stack" transform="translate(28.000000, 28.000000)" fill="#FFFFFF" fill-rule="nonzero">
                                    <path d="M34.3636364,26.1818182 L1.63636364,26.1818182 C0.732624955,26.1818182 0,26.9144431 0,27.8181818 C0,28.7219205 0.732624955,29.4545455 1.63636364,29.4545455 L34.3636364,29.4545455 C35.267375,29.4545455 36,28.7219205 36,27.8181818 C36,26.9144431 35.267375,26.1818182 34.3636364,26.1818182 Z M34.3636364,32.7272727 L1.63636364,32.7272727 C0.732624955,32.7272727 0,33.4598977 0,34.3636364 C0,35.267375 0.732624955,36 1.63636364,36 L34.3636364,36 C35.267375,36 36,35.267375 36,34.3636364 C36,33.4598977 35.267375,32.7272727 34.3636364,32.7272727 Z M8.18181818,9.81818182 C7.2780795,9.81818182 6.54545455,10.5508068 6.54545455,11.4545455 C6.54545455,12.3582841 7.2780795,13.0909091 8.18181818,13.0909091 C9.08555686,13.0909091 9.81818182,12.3582841 9.81818182,11.4545455 C9.81818182,10.5508068 9.08555686,9.81818182 8.18181818,9.81818182 Z M31.0909091,0 L4.90909091,0 C2.19787486,0 0,2.19787486 0,4.90909091 L0,18 C0,20.711216 2.19787486,22.9090909 4.90909091,22.9090909 L31.0909091,22.9090909 C33.8021251,22.9090909 36,20.711216 36,18 L36,4.90909091 C36,2.19787486 33.8021251,0 31.0909091,0 Z M32.7272727,18 C32.7272727,18.9037387 31.9946478,19.6363636 31.0909091,19.6363636 L4.90909091,19.6363636 C4.00535223,19.6363636 3.27272727,18.9037387 3.27272727,18 L3.27272727,4.90909091 C3.27272727,4.00535223 4.00535223,3.27272727 4.90909091,3.27272727 L31.0909091,3.27272727 C31.9946478,3.27272727 32.7272727,4.00535223 32.7272727,4.90909091 L32.7272727,18 Z M18,6.54545455 C15.288784,6.54545455 13.0909091,8.74332941 13.0909091,11.4545455 C13.0909091,14.1657615 15.288784,16.3636364 18,16.3636364 C20.711216,16.3636364 22.9090909,14.1657615 22.9090909,11.4545455 C22.9090909,8.74332941 20.711216,6.54545455 18,6.54545455 Z M18,13.0909091 C17.0962613,13.0909091 16.3636364,12.3582841 16.3636364,11.4545455 C16.3636364,10.5508068 17.0962613,9.81818182 18,9.81818182 C18.9037387,9.81818182 19.6363636,10.5508068 19.6363636,11.4545455 C19.6363636,12.3582841 18.9037387,13.0909091 18,13.0909091 Z M27.8181818,9.81818182 C26.9144431,9.81818182 26.1818182,10.5508068 26.1818182,11.4545455 C26.1818182,12.3582841 26.9144431,13.0909091 27.8181818,13.0909091 C28.7219205,13.0909091 29.4545455,12.3582841 29.4545455,11.4545455 C29.4545455,10.5508068 28.7219205,9.81818182 27.8181818,9.81818182 Z" id="Shape"></path>
                                </g>
                            </g>
                        </g>
                    </g>
                </g>
            </g>
        </g>
    </g>
</svg>