<svg width="156px" height="156px" id="icon-shadow-primary" viewBox="0 0 156 156" version="1.1" xmlns="http://www.w3.org/2000/svg" xmlns:xlink="http://www.w3.org/1999/xlink" class="icon__inner">
    <!-- Generator: Sketch 61.1 (89650) - https://sketch.com -->
    <title>benefit-sll-security</title>
    <desc>Created with Sketch.</desc>
    <defs>
        <linearGradient x1="50%" y1="0.213455264%" x2="50%" y2="99.747016%" id="linearGradient-benefit-sll-security">
            <stop class="main-stop" offset="0%"></stop>
            <stop class="alt-stop" offset="100%"></stop>
        </linearGradient>
    </defs>
    <g id="Page-1" stroke="none" stroke-width="1" fill="#ff0080" fill-rule="evenodd">
        <g id="Artboard-Copy-5" transform="translate(-2315.000000, -5131.000000)">
            <g id="Benefits" transform="translate(1765.000000, 5131.000000)">
                <g id="EXCELLENCE">
                    <g id="items">
                        <g id="benefit-sll-security" transform="translate(582.000000, 32.000000)">
                            <g id="Group-6">
                                <path d="M46,92 C91.6454167,92 92,71.4054167 92,46 C92,20.5945833 91.6454167,0 46,0 C0.354583333,0 0,20.5945833 0,46 C0,71.4054167 0.354583333,92 46,92 Z" id="Shape"></path>
                                <path d="M60.7062964,30.1364742 C60.2590731,29.7747 59.6720657,29.6349364 59.1097966,29.7563552 C55.004978,30.6166196 50.7271176,29.7431658 47.2880957,27.3425995 C46.636582,26.8906246 45.7729311,26.8906246 45.1214174,27.3425995 C41.6823954,29.7431658 37.4045351,30.6166196 33.2997165,29.7563552 C32.7374473,29.6349364 32.15044,29.7747 31.7032167,30.1364742 C31.2565931,30.4987847 30.9980411,31.0438402 30.9999855,31.6189383 L30.9999855,45.778371 C30.9965682,51.3072505 33.665702,56.4968395 38.1652397,59.7097323 L45.1024114,64.6512793 C45.7622302,65.1210647 46.6472829,65.1210647 47.3071016,64.6512793 L54.2442734,59.7097323 C58.7438111,56.4968395 61.4129448,51.3072505 61.4095275,45.778371 L61.4095275,31.6189383 C61.4114719,31.0438402 61.15292,30.4987847 60.7062964,30.1364742 Z M57.6083297,45.778371 C57.6112844,50.0770982 55.5370182,54.1123601 52.0395832,56.6117625 L46.2047565,60.7740655 L40.3699299,56.6117625 C36.8724948,54.1123601 34.7982286,50.0770982 34.8011834,45.778371 L34.8011834,33.8046225 C38.7856478,34.1456521 42.7761603,33.2211833 46.2047565,31.1627955 C49.6333528,33.2211833 53.6238652,34.1456521 57.6083297,33.8046225 L57.6083297,45.778371 Z M49.1316728,41.4260085 L44.0190723,46.5576149 L42.3275427,44.8470795 C41.5822773,44.101814 40.3739633,44.101814 39.6286979,44.8470795 C38.8834324,45.5923449 38.8834324,46.8006589 39.6286978,47.5459243 L42.6696498,50.5868763 C43.0265181,50.946683 43.5123023,51.1490692 44.0190723,51.1490692 C44.5258422,51.1490692 45.0116265,50.946683 45.3684947,50.5868763 L51.9065415,44.1058474 C52.6518069,43.360582 52.6518069,42.152268 51.9065415,41.4070025 C51.1612761,40.6617371 49.9529621,40.6617371 49.2076966,41.4070025 L49.1316728,41.4260085 Z" id="Shape" fill="#FFFFFF" fill-rule="nonzero"></path>
                            </g>
                        </g>
                    </g>
                </g>
            </g>
        </g>
    </g>
</svg>