<svg width="50px" height="50px" viewBox="0 0 79 80" version="1.1" xmlns="http://www.w3.org/2000/svg" xmlns:xlink="http://www.w3.org/1999/xlink">
    <!-- Generator: Sketch 61.1 (89650) - https://sketch.com -->
    <title>logo_symbol</title>
    <desc>Created with Sketch.</desc>
    <g id="Page-1" stroke="none" strokeWidth="1" fillRule="evenodd">
        <g id="Artboard-Copy-5" transform="translate(-2108.000000, -6884.000000)">
            <g id="logo_symbol" transform="translate(2108.000000, 6884.000000)">
                <path fill = "#33cdfa" d="M72.17247,63.7012983 C72.170235,63.7052424 72.1685259,63.7074774 72.1663566,63.7113558 C72.1563648,63.7235826 72.146373,63.7375185 72.137433,63.7497453 C61.9530452,73.4202794 46.6595037,75.3276582 34.4040559,68.4636319 C22.7065045,61.9069844 16.3852555,48.8086113 18.3939984,35.6835497 C18.4073426,35.5788989 18.4235136,35.4781265 18.4396187,35.3751191 C18.482544,35.1173706 18.5248118,34.8629745 18.5732588,34.6129827 C18.6255842,34.3290715 18.6812621,34.046212 18.7425275,33.7661791 C20.6382054,25.0210025 26.4288381,18.6574856 33.2783369,18.6574856 C35.2285752,18.6574856 37.0953295,19.1758094 38.8111553,20.117272 C33.6196352,25.3561216 30.8064224,32.4979458 31.0280164,39.8719474 C31.241788,46.9935251 34.349364,55.165226 40.0624289,59.0618899 C42.1612293,60.4933443 44.6054692,61.2992605 47.1462744,61.358751 C56.486751,61.577387 61.6471783,53.4531471 63.0725193,45.1406409 C64.2134232,38.4870994 63.5427247,31.1982251 61.2098406,24.8690222 C57.2848447,14.2203451 48.8307445,5.48456861 37.1270797,3.68184059 C37.1203747,3.68124897 37.1142613,3.68019721 37.1075563,3.6790797 C37.0184848,3.6651438 36.9300049,3.65232539 36.8408677,3.63950698 C36.7072933,3.62057518 36.5741791,3.602235 36.4400131,3.58494659 C27.6530945,2.44811832 18.9601775,5.22675431 12.5160033,10.9289071 C19.680046,4.15566146 29.3467017,0.00013147083 39.9830863,0.00013147083 C48.6955267,0.00013147083 56.7553459,2.78435497 63.3242859,7.51664749 C80.3420016,19.7759737 83.6796516,46.4397042 72.17247,63.7012983" id="shape-top"></path>
                <path fill = "#ff0080" d="M40.0624552,59.0618767 C42.1612555,60.4933311 44.6054297,61.2992473 47.1463007,61.3587379 C56.4867116,61.5774396 61.6471389,53.4531339 63.0725456,45.1406278 C64.2133837,38.4870863 63.5426853,31.198212 61.2098012,24.869009 C57.2848053,14.220332 48.8307707,5.48455546 37.1270403,3.68182744 C37.120401,3.68123583 37.1142219,3.68018406 37.1075826,3.67906656 C37.019037,3.66572227 36.9299655,3.65231224 36.840894,3.63955957 C36.7072539,3.62062777 36.5742054,3.60222186 36.4400394,3.58499918 C27.6530551,2.44810518 18.9602038,5.2268069 12.5159638,10.928894 C4.80743468,18.2176368 6.57354149e-06,28.5378998 6.57354149e-06,39.9826984 C6.57354149e-06,62.0639474 17.9029154,79.9658044 39.9831126,79.9658044 C53.1638521,79.9658044 64.8525292,73.5895349 72.1373936,63.7497321 C61.9530715,73.4202662 46.6594643,75.327645 34.4040164,68.4636187 C22.7064651,61.9069712 16.3852818,48.8085982 18.3940247,35.6835366 C18.4073689,35.5789515 18.4234741,35.4781134 18.439645,35.3751717 C18.4825045,35.1173574 18.5248381,34.8629614 18.5732851,34.6129696 C18.6256105,34.3290583 18.6812884,34.0461988 18.7424881,33.766166 C20.6382317,25.0209893 26.4287987,18.6574725 33.2783632,18.6574725 C35.2286015,18.6574725 37.0952901,19.1757962 38.8111816,20.1172588 C42.4973607,22.1392802 45.4837206,26.1283024 47.1148792,31.1606771 C48.6904914,36.9329039 48.6916089,43.0224355 47.1188233,48.7958455 L47.1188233,48.7986064 C45.6757338,53.2508661 43.1731865,56.8862975 40.0627182,59.062074 L40.0624552,59.0618767 Z" id="shape-bottom"></path>
            </g>
        </g>
    </g>
</svg>