<svg width="156px" height="156px" id="icon-shadow-secondary" viewBox="0 0 156 156" version="1.1" xmlns="http://www.w3.org/2000/svg" xmlns:xlink="http://www.w3.org/1999/xlink" class="icon__inner">
    <!-- Generator: Sketch 61.1 (89650) - https://sketch.com -->
    <title>benefit-quick-response</title>
    <desc>Created with Sketch.</desc>
    <defs>
        <linearGradient x1="50%" y1="0.284385536%" x2="50%" y2="99.4113593%" id="linearGradient-benefit-quick-response">
            <stop class="main-stop" offset="0%"></stop>
            <stop class="alt-stop" offset="100%"></stop>
        </linearGradient>
    </defs>
    <g id="Page-1" stroke="none" stroke-width="1" fill="#3DD0FA" fill-rule="evenodd">
        <g id="Artboard-Copy-5" transform="translate(-2145.000000, -5131.000000)">
            <g id="Benefits" transform="translate(1765.000000, 5131.000000)">
                <g id="EXCELLENCE">
                    <g id="items">
                        <g id="benefit-quick-response" transform="translate(412.000000, 32.000000)">
                            <g id="Group-6">
                                <path d="M46,92 C91.6454167,92 92,71.4054167 92,46 C92,20.5945833 91.6454167,0 46,0 C0.354583333,0 0,20.5945833 0,46 C0,71.4054167 0.354583333,92 46,92 Z" id="Shape" ></path>
                                <path d="M61.7095401,41.1561712 C61.3714041,40.4851291 60.684973,40.0609301 59.9335555,40.0586527 L49.956114,40.0586527 L49.956114,28.0857229 C50.0001385,27.186035 49.4359671,26.3683951 48.5792271,26.0902346 C47.7572867,25.8198077 46.8547184,26.109919 46.3442802,26.8086104 L30.3803739,48.7589816 C29.973234,49.3474125 29.9123234,50.1087949 30.2207349,50.7544699 C30.5058735,51.495635 31.2033427,51.9971859 31.9967194,52.0315824 L41.9741609,52.0315824 L41.9741609,64.0045121 C41.9747968,64.8677083 42.5303754,65.6326354 43.3510478,65.900226 C43.5515399,65.962368 43.7597865,65.9959562 43.9696492,66.0000072 C44.608313,66.0016573 45.2091839,65.6975128 45.5859947,65.1818502 L61.549901,43.2314791 C61.9882554,42.6244465 62.0498971,41.8231047 61.7095401,41.1561712 Z M45.9651375,57.8584082 L45.9651375,50.0360941 C45.9651375,48.9340164 45.0717269,48.0406058 43.9696492,48.0406058 L35.987696,48.0406058 L45.9651375,34.2318269 L45.9651375,42.054141 C45.9651375,43.1562187 46.858548,44.0496292 47.9606258,44.0496292 L55.9425789,44.0496292 L45.9651375,57.8584082 Z" id="Shape" fill="#FFFFFF" fill-rule="nonzero"></path>
                            </g>
                        </g>
                    </g>
                </g>
            </g>
        </g>
    </g>
</svg>