<svg width="1920" height="340" xmlns="http://www.w3.org/2000/svg"><g fill="none" fill-rule="evenodd"><path d="M0 52.861c0 2.958 26.667 25.243 80 66.852 80 62.415 240 168.405 400 184.498 160 13.68 322-27.586 482-52.793 194-32.418 325-28.381 485-12.953 106.667 8.82 264.333 42.134 473 99.945v66.592l-80 4.618c-80 4.79-240-45.108-400-34.28-160 11.582-320 23.948-480 37.128-160 14.026-320 28.93-480 44.743-160 16.755-320 34.485-400 43.727l-80 9.497V52.861z" fill="#FF0080" opacity=".5"/><path d="M0 173c0 1.836 26.667 14.81 80 38.92 80 36.164 240 109.69 400 123.114 160 13.935 320-31.232 480-58.335 184-33.199 320-37.165 480-23.742 160 13.936 320 49.845 400 68.397l80 18.21V449H0V173z" fill="#FFF" fill-rule="nonzero"/></g></svg>